<svg width="40" height="40" viewBox="0 0 40 40" fill="none" xmlns="http://www.w3.org/2000/svg">
<rect width="40" height="40" rx="8" fill="#FFE5E5"/>
<path fill-rule="evenodd" clip-rule="evenodd" d="M10.3999 19.4001C10.3999 14.0981 14.698 9.80005 19.9999 9.80005C25.3019 9.80005 29.5999 14.0981 29.5999 19.4001V23.9001C29.5999 25.7226 28.1225 27.2001 26.2999 27.2001C24.4774 27.2001 22.9999 25.7226 22.9999 23.9001V20.9001C22.9999 19.0775 24.4774 17.6001 26.2999 17.6001C26.7824 17.6001 27.2407 17.7036 27.6538 17.8897C26.9504 14.3047 23.791 11.6 19.9999 11.6C16.2088 11.6 13.0494 14.3047 12.346 17.8897C12.7591 17.7036 13.2174 17.6001 13.6999 17.6001C15.5224 17.6001 16.9999 19.0775 16.9999 20.9001V23.9001C16.9999 25.7226 15.5224 27.2001 13.6999 27.2001C11.8774 27.2001 10.3999 25.7226 10.3999 23.9001V19.4001ZM12.1999 20.9001V23.9001C12.1999 24.7285 12.8715 25.4001 13.6999 25.4001C14.5283 25.4001 15.1999 24.7285 15.1999 23.9001V20.9001C15.1999 20.0716 14.5283 19.4001 13.6999 19.4001C12.8715 19.4001 12.1999 20.0716 12.1999 20.9001ZM27.7999 20.9001C27.7999 20.0716 27.1284 19.4001 26.2999 19.4001C25.4715 19.4001 24.7999 20.0716 24.7999 20.9001V23.9001C24.7999 24.7285 25.4715 25.4001 26.2999 25.4001C27.1284 25.4001 27.7999 24.7285 27.7999 23.9001V20.9001Z" fill="#333333"/>
<path fill-rule="evenodd" clip-rule="evenodd" d="M12.562 26.3431L12.5327 26.235L14.2703 25.7649L14.2995 25.8731C14.6301 27.095 14.7432 27.4495 14.9347 27.6981C15.1271 27.948 15.3818 28.143 15.6732 28.2635C15.9632 28.3833 16.335 28.4 17.6008 28.4H17.9436L18.0296 28.2282C18.0358 28.2157 18.0425 28.202 18.0497 28.1874C18.1196 28.0452 18.2349 27.8107 18.4211 27.6283C18.58 27.4728 18.7714 27.3544 18.9816 27.2819C19.228 27.1969 19.4893 27.1987 19.6478 27.1997C19.664 27.1999 19.6792 27.2 19.6932 27.2H20.9015C21.7299 27.2 22.4015 27.8715 22.4015 28.7C22.4015 29.5284 21.7299 30.2 20.9015 30.2H17.6008C17.5433 30.2 17.4865 30.2 17.4305 30.2001C16.4141 30.2009 15.6498 30.2015 14.9856 29.9269C14.4027 29.686 13.8933 29.2961 13.5085 28.7963C13.07 28.2269 12.871 27.4889 12.6063 26.5075C12.5918 26.4535 12.577 26.3987 12.562 26.3431Z" fill="#333333"/>
</svg>
