<svg width="40" height="40" viewBox="0 0 40 40" fill="none" xmlns="http://www.w3.org/2000/svg">
<rect width="40" height="40" rx="8" fill="#FFE5E5"/>
<path d="M10 11V10.25C9.80109 10.25 9.61032 10.329 9.46967 10.4697C9.32902 10.6103 9.25 10.8011 9.25 11H10ZM21 11H21.75C21.75 10.8011 21.671 10.6103 21.5303 10.4697C21.3897 10.329 21.1989 10.25 21 10.25V11ZM21 17V16.25C20.8011 16.25 20.6103 16.329 20.4697 16.4697C20.329 16.6103 20.25 16.8011 20.25 17H21ZM10 11.75H21V10.25H10V11.75ZM20.25 11V27H21.75V11H20.25ZM10.75 25V11H9.25V25H10.75ZM21 17.75H26V16.25H21V17.75ZM29.25 21V25H30.75V21H29.25ZM21.75 27V17H20.25V27H21.75ZM26.884 27.884C26.7679 28.0001 26.6301 28.0922 26.4784 28.1551C26.3268 28.2179 26.1642 28.2502 26 28.2502C25.8358 28.2502 25.6732 28.2179 25.5216 28.1551C25.3699 28.0922 25.2321 28.0001 25.116 27.884L24.056 28.944C24.5717 29.4597 25.2712 29.7494 26.0005 29.7494C26.7298 29.7494 27.4293 29.4597 27.945 28.944L26.884 27.884ZM25.116 26.116C25.2321 25.9999 25.3699 25.9078 25.5216 25.8449C25.6732 25.7821 25.8358 25.7498 26 25.7498C26.1642 25.7498 26.3268 25.7821 26.4784 25.8449C26.6301 25.9078 26.7679 25.9999 26.884 26.116L27.944 25.056C27.4283 24.5403 26.7288 24.2506 25.9995 24.2506C25.2702 24.2506 24.5707 24.5403 24.055 25.056L25.116 26.116ZM14.884 27.884C14.7679 28.0001 14.6301 28.0922 14.4784 28.1551C14.3268 28.2179 14.1642 28.2502 14 28.2502C13.8358 28.2502 13.6732 28.2179 13.5216 28.1551C13.3699 28.0922 13.2321 28.0001 13.116 27.884L12.056 28.944C12.5717 29.4597 13.2712 29.7494 14.0005 29.7494C14.7298 29.7494 15.4293 29.4597 15.945 28.944L14.884 27.884ZM13.116 26.116C13.2321 25.9999 13.3699 25.9078 13.5216 25.8449C13.6732 25.7821 13.8358 25.7498 14 25.7498C14.1642 25.7498 14.3268 25.7821 14.4784 25.8449C14.6301 25.9078 14.7679 25.9999 14.884 26.116L15.944 25.056C15.4283 24.5403 14.7288 24.2506 13.9995 24.2506C13.2702 24.2506 12.5707 24.5403 12.055 25.056L13.116 26.116ZM26.884 26.116C27.128 26.36 27.25 26.679 27.25 27H28.75C28.75 26.297 28.481 25.592 27.945 25.055L26.884 26.116ZM27.25 27C27.25 27.321 27.128 27.64 26.884 27.884L27.945 28.944C28.2007 28.689 28.4025 28.386 28.5408 28.0524C28.6792 27.7188 28.7502 27.3611 28.75 27H27.25ZM24 26.25H21V27.75H24V26.25ZM25.116 27.884C24.9997 27.7681 24.9074 27.6303 24.8446 27.4786C24.7818 27.3269 24.7496 27.1642 24.75 27H23.25C23.25 27.703 23.519 28.408 24.055 28.945L25.116 27.884ZM24.75 27C24.75 26.679 24.872 26.36 25.116 26.116L24.055 25.056C23.7993 25.311 23.5975 25.614 23.4592 25.9476C23.3208 26.2812 23.2498 26.6389 23.25 27H24.75ZM13.116 27.884C12.9997 27.7681 12.9074 27.6303 12.8446 27.4786C12.7818 27.3269 12.7496 27.1642 12.75 27H11.25C11.25 27.703 11.519 28.408 12.055 28.945L13.116 27.884ZM12.75 27C12.75 26.679 12.872 26.36 13.116 26.116L12.056 25.056C11.8003 25.3111 11.5975 25.6141 11.4592 25.9477C11.3209 26.2813 11.2498 26.6389 11.25 27H12.75ZM21 26.25H16V27.75H21V26.25ZM14.884 26.116C15.128 26.36 15.25 26.679 15.25 27H16.75C16.75 26.297 16.481 25.592 15.945 25.055L14.884 26.116ZM15.25 27C15.25 27.321 15.128 27.64 14.884 27.884L15.944 28.944C16.1997 28.6889 16.4025 28.3859 16.5408 28.0523C16.6791 27.7187 16.7502 27.3611 16.75 27H15.25ZM29.25 25C29.25 25.69 28.69 26.25 28 26.25V27.75C28.7293 27.75 29.4288 27.4603 29.9445 26.9445C30.4603 26.4288 30.75 25.7293 30.75 25H29.25ZM26 17.75C26.862 17.75 27.6886 18.0924 28.2981 18.7019C28.9076 19.3114 29.25 20.138 29.25 21H30.75C30.75 19.7402 30.2496 18.532 29.3588 17.6412C28.468 16.7504 27.2598 16.25 26 16.25V17.75ZM9.25 25C9.25 25.7293 9.53973 26.4288 10.0555 26.9445C10.5712 27.4603 11.2707 27.75 12 27.75V26.25C11.31 26.25 10.75 25.69 10.75 25H9.25Z" fill="#333333"/>
</svg>
