<svg width="40" height="40" viewBox="0 0 40 40" fill="none" xmlns="http://www.w3.org/2000/svg">
<rect width="40" height="40" rx="8" fill="#FFE5E5"/>
<path d="M17.0879 19.8L18.3808 21.0929C18.7713 21.4835 19.4045 21.4835 19.795 21.0929L23.0879 17.8M26.6117 20.0771C26.6117 23.6957 23.0906 26.4341 21.1877 27.6499C20.4569 28.1167 19.5434 28.1167 18.8127 27.6499C16.9097 26.4341 13.3887 23.6957 13.3887 20.0771V15.5647C13.3887 14.7992 13.8635 14.1139 14.5804 13.8451L19.0329 12.1754C19.6566 11.9415 20.3438 11.9415 20.9675 12.1754L25.42 13.8451C26.1368 14.1139 26.6117 14.7992 26.6117 15.5647V20.0771Z" stroke="#131214" stroke-width="1.5" stroke-linecap="round" stroke-linejoin="round"/>
</svg>
