<svg width="48" height="48" viewBox="0 0 48 48" fill="none" xmlns="http://www.w3.org/2000/svg">
<rect width="48" height="48" rx="24" fill="#DEEEFD"/>
<path d="M31.8281 26.25V26.2969H31.875H33C33.2859 26.2969 33.5602 26.4105 33.7623 26.6127C33.9645 26.8148 34.0781 27.0891 34.0781 27.375C34.0781 27.6609 33.9645 27.9352 33.7623 28.1373C33.5602 28.3395 33.2859 28.4531 33 28.4531H28.5C28.2141 28.4531 27.9398 28.3395 27.7377 28.1373C27.5355 27.9352 27.4219 27.6609 27.4219 27.375C27.4219 27.0891 27.5355 26.8148 27.7377 26.6127C27.9398 26.4105 28.2141 26.2969 28.5 26.2969H29.625H29.6719V26.25V15.75C29.6719 15.4641 29.7855 15.1898 29.9877 14.9877C30.1898 14.7855 30.4641 14.6719 30.75 14.6719C31.0359 14.6719 31.3102 14.7855 31.5123 14.9877C31.7145 15.1898 31.8281 15.4641 31.8281 15.75V26.25ZM18.3281 23.25V23.2969H18.375H19.5C19.7859 23.2969 20.0602 23.4105 20.2623 23.6127C20.4645 23.8148 20.5781 24.0891 20.5781 24.375C20.5781 24.6609 20.4645 24.9352 20.2623 25.1373C20.0602 25.3395 19.7859 25.4531 19.5 25.4531H15C14.7141 25.4531 14.4398 25.3395 14.2377 25.1373C14.0355 24.9352 13.9219 24.6609 13.9219 24.375C13.9219 24.0891 14.0355 23.8148 14.2377 23.6127C14.4398 23.4105 14.7141 23.2969 15 23.2969H16.125H16.1719V23.25V15.75C16.1719 15.4641 16.2855 15.1898 16.4877 14.9877C16.6898 14.7855 16.9641 14.6719 17.25 14.6719C17.5359 14.6719 17.8102 14.7855 18.0123 14.9877C18.2145 15.1898 18.3281 15.4641 18.3281 15.75V23.25ZM25.0781 18.75V18.7969H25.125H26.25C26.5359 18.7969 26.8102 18.9105 27.0123 19.1127C27.2145 19.3148 27.3281 19.5891 27.3281 19.875C27.3281 20.1609 27.2145 20.4352 27.0123 20.6373C26.8102 20.8395 26.5359 20.9531 26.25 20.9531H21.75C21.4641 20.9531 21.1898 20.8395 20.9877 20.6373C20.7855 20.4352 20.6719 20.1609 20.6719 19.875C20.6719 19.5891 20.7855 19.3148 20.9877 19.1127C21.1898 18.9105 21.4641 18.7969 21.75 18.7969H22.875H22.9219V18.75V15.75C22.9219 15.4641 23.0355 15.1898 23.2377 14.9877C23.4398 14.7855 23.7141 14.6719 24 14.6719C24.2859 14.6719 24.5602 14.7855 24.7623 14.9877C24.9645 15.1898 25.0781 15.4641 25.0781 15.75V18.75ZM25.0781 23.625V32.25C25.0781 32.5359 24.9645 32.8102 24.7623 33.0123C24.5602 33.2145 24.2859 33.3281 24 33.3281C23.7141 33.3281 23.4398 33.2145 23.2377 33.0123C23.0355 32.8102 22.9219 32.5359 22.9219 32.25V23.625C22.9219 23.3391 23.0355 23.0648 23.2377 22.8627C23.4398 22.6605 23.7141 22.5469 24 22.5469C24.2859 22.5469 24.5602 22.6605 24.7623 22.8627C24.9645 23.0648 25.0781 23.3391 25.0781 23.625ZM29.9877 30.3627C30.1898 30.1605 30.4641 30.0469 30.75 30.0469C31.0359 30.0469 31.3102 30.1605 31.5123 30.3627C31.7145 30.5648 31.8281 30.8391 31.8281 31.125V32.25C31.8281 32.5359 31.7145 32.8102 31.5123 33.0123C31.3102 33.2145 31.0359 33.3281 30.75 33.3281C30.4641 33.3281 30.1898 33.2145 29.9877 33.0123C29.7855 32.8102 29.6719 32.5359 29.6719 32.25V31.125C29.6719 30.8391 29.7855 30.5648 29.9877 30.3627ZM16.4877 27.3627C16.6898 27.1605 16.9641 27.0469 17.25 27.0469C17.5359 27.0469 17.8102 27.1605 18.0123 27.3627C18.2145 27.5648 18.3281 27.8391 18.3281 28.125V32.25C18.3281 32.5359 18.2145 32.8102 18.0123 33.0123C17.8102 33.2145 17.5359 33.3281 17.25 33.3281C16.9641 33.3281 16.6898 33.2145 16.4877 33.0123C16.2855 32.8102 16.1719 32.5359 16.1719 32.25V28.125C16.1719 27.8391 16.2855 27.5648 16.4877 27.3627Z" fill="#333333" stroke="#1B3159" stroke-width="0.09375"/>
</svg>
