<svg width="56" height="49" viewBox="0 0 56 49" fill="none" xmlns="http://www.w3.org/2000/svg">
<rect y="0.719727" width="56" height="48" rx="24" fill="#60D669"/>
<g clip-path="url(#clip0_16719_3869)">
<path d="M16.1 24.6116C16.0994 26.7073 16.6495 28.7536 17.6954 30.5572L16 36.7197L22.3349 35.0661C24.0871 36.0157 26.0502 36.5133 28.0452 36.5134H28.0505C34.6362 36.5134 39.9972 31.1784 40 24.621C40.0013 21.4434 38.7594 18.4555 36.503 16.2075C34.2471 13.9597 31.2468 12.7212 28.05 12.7197C21.4634 12.7197 16.1027 18.0545 16.1 24.6116Z" fill="#5FD669"/>
<path d="M16.1 24.6116C16.0994 26.7073 16.6495 28.7536 17.6954 30.5572L16 36.7197L22.3349 35.0661C24.0804 36.0135 26.0455 36.5127 28.0452 36.5134H28.0505C34.6362 36.5134 39.9972 31.1784 40 24.621C40.0013 21.4434 38.7594 18.4555 36.503 16.2075C34.2471 13.9597 31.2468 12.7212 28.05 12.7197C21.4634 12.7197 16.1027 18.0545 16.1 24.6116ZM19.8728 30.2467L19.6363 29.8729C18.642 28.299 18.1172 26.4801 18.1179 24.6124C18.1201 19.1623 22.5754 14.7282 28.054 14.7282C30.7071 14.7293 33.2005 15.759 35.0759 17.6271C36.9512 19.4954 37.9831 21.979 37.9824 24.6205C37.98 30.0706 33.5245 34.5052 28.0502 34.5052H28.0463C26.2638 34.5043 24.5157 34.0278 22.9911 33.1272L22.6283 32.913L18.8691 33.8942L19.8728 30.2467Z" fill="url(#paint0_linear_16719_3869)"/>
<path d="M25.0636 19.7609C24.8399 19.2574 24.6045 19.2472 24.3918 19.2384C24.2176 19.2308 24.0185 19.2313 23.8195 19.2313C23.6204 19.2313 23.2969 19.3072 23.0234 19.6097C22.7496 19.9124 21.9783 20.644 21.9783 22.1319C21.9783 23.62 23.0482 25.058 23.1974 25.2599C23.3467 25.4616 25.263 28.6127 28.2979 29.825C30.8201 30.8325 31.3334 30.6321 31.8808 30.5816C32.4283 30.5312 33.6474 29.8502 33.8961 29.144C34.1451 28.4378 34.1451 27.8325 34.0704 27.7061C33.9958 27.58 33.7967 27.5044 33.4981 27.3532C33.1994 27.2019 31.7315 26.4702 31.4578 26.3693C31.1841 26.2684 30.985 26.2181 30.7859 26.5209C30.5868 26.8233 30.015 27.5044 29.8407 27.7061C29.6666 27.9082 29.4923 27.9334 29.1938 27.7821C28.8951 27.6304 27.9335 27.3114 26.7926 26.2812C25.905 25.4795 25.3057 24.4895 25.1316 24.1867C24.9574 23.8843 25.1129 23.7204 25.2626 23.5697C25.3968 23.4342 25.5613 23.2166 25.7107 23.04C25.8596 22.8634 25.9093 22.7374 26.0089 22.5357C26.1085 22.3338 26.0586 22.1572 25.9841 22.0059C25.9093 21.8546 25.3291 20.3589 25.0636 19.7609Z" fill="white"/>
</g>
<defs>
<linearGradient id="paint0_linear_16719_3869" x1="1216" y1="2412.72" x2="1216" y2="12.7197" gradientUnits="userSpaceOnUse">
<stop stop-color="#F9F9F9"/>
<stop offset="1" stop-color="white"/>
</linearGradient>
<clipPath id="clip0_16719_3869">
<rect width="24" height="24" fill="white" transform="translate(16 12.7197)"/>
</clipPath>
</defs>
</svg>
