<svg width="56" height="49" viewBox="0 0 56 49" fill="none" xmlns="http://www.w3.org/2000/svg">
<rect y="0.719727" width="56" height="48" rx="24" fill="#2AABEE"/>
<g clip-path="url(#clip0_16719_3870)">
<path d="M28 7.71973C23.4923 7.71973 19.1653 9.5119 15.9805 12.6989C12.7923 15.8871 11.0009 20.211 11 24.7197C11 29.2266 12.793 33.5536 15.9805 36.7406C19.1653 39.9276 23.4923 41.7197 28 41.7197C32.5077 41.7197 36.8347 39.9276 40.0195 36.7406C43.207 33.5536 45 29.2266 45 24.7197C45 20.2129 43.207 15.8858 40.0195 12.6989C36.8347 9.5119 32.5077 7.71973 28 7.71973Z" fill="url(#paint0_linear_16719_3870)"/>
<path d="M19.0853 24.5063C24.106 22.3474 27.4532 20.9239 29.1267 20.2362C33.9106 18.2724 34.9035 17.9314 35.5519 17.9198C35.6945 17.9176 36.012 17.9524 36.2192 18.1177C36.3914 18.2572 36.4398 18.4458 36.464 18.5782C36.4855 18.7105 36.5151 19.0119 36.4909 19.2473C36.2326 21.9354 35.1106 28.4586 34.5402 31.4694C34.3008 32.7433 33.8245 33.1704 33.3644 33.2121C32.3635 33.303 31.6048 32.5598 30.6362 31.9332C29.1213 30.9522 28.2657 30.3418 26.794 29.3848C25.0935 28.2787 26.1966 27.6707 27.1653 26.6773C27.4182 26.4172 31.8254 22.4608 31.9088 22.1019C31.9196 22.057 31.9303 21.8897 31.8281 21.8015C31.7285 21.7131 31.5806 21.7433 31.4729 21.7672C31.3196 21.8012 28.9007 23.3812 24.2083 26.5068C23.5222 26.9727 22.9006 27.1998 22.341 27.1878C21.7275 27.1748 20.5437 26.8446 19.6638 26.5625C18.5876 26.2164 17.7293 26.0334 17.8046 25.4456C17.8423 25.1396 18.2701 24.8264 19.0853 24.5063Z" fill="white"/>
</g>
<defs>
<linearGradient id="paint0_linear_16719_3870" x1="1711" y1="7.71973" x2="1711" y2="3407.72" gradientUnits="userSpaceOnUse">
<stop stop-color="#2AABEE"/>
<stop offset="1" stop-color="#229ED9"/>
</linearGradient>
<clipPath id="clip0_16719_3870">
<rect width="24" height="24" fill="white" transform="translate(16 12.7197)"/>
</clipPath>
</defs>
</svg>
