<svg width="24" height="25" viewBox="0 0 24 25" fill="none" xmlns="http://www.w3.org/2000/svg">
<g clip-path="url(#clip0_17240_55361)">
<path d="M0.100027 12.3919C0.0994444 14.4876 0.649496 16.5339 1.69541 18.3375L0 24.5L6.33492 22.8464C8.08708 23.796 10.0502 24.2936 12.0452 24.2937H12.0505C18.6362 24.2937 23.9972 18.9587 24 12.4012C24.0013 9.2237 22.7594 6.23575 20.503 3.98778C18.2471 1.74 15.2468 0.50145 12.05 0.5C5.46342 0.5 0.102746 5.83473 0.100027 12.3919Z" fill="#5FD669"/>
<path d="M0.100027 12.3919C0.0994444 14.4876 0.649496 16.5339 1.69541 18.3375L0 24.5L6.33492 22.8464C8.08036 23.7938 10.0455 24.2929 12.0452 24.2937H12.0505C18.6362 24.2937 23.9972 18.9587 24 12.4012C24.0013 9.2237 22.7594 6.23575 20.503 3.98778C18.2471 1.74 15.2468 0.50145 12.05 0.5C5.46342 0.5 0.102746 5.83473 0.100027 12.3919ZM3.87281 18.027L3.63628 17.6532C2.64197 16.0792 2.11716 14.2604 2.11791 12.3927C2.12006 6.9426 6.57544 2.5085 12.054 2.5085C14.7071 2.50962 17.2005 3.53926 19.0759 5.40739C20.9512 7.2757 21.9831 9.75926 21.9824 12.4007C21.98 17.8509 17.5245 22.2855 12.0502 22.2855H12.0463C10.2638 22.2846 8.51569 21.808 6.99113 20.9075L6.62831 20.6933L2.86912 21.6745L3.87281 18.027Z" fill="url(#paint0_linear_17240_55361)"/>
<path d="M9.06358 7.54121C8.8399 7.03763 8.60449 7.02746 8.39177 7.01863C8.21758 7.01104 8.01846 7.01161 7.81952 7.01161C7.6204 7.01161 7.29687 7.08748 7.0234 7.38993C6.74965 7.69267 5.97827 8.42425 5.97827 9.9122C5.97827 11.4002 7.04824 12.8382 7.1974 13.0402C7.34674 13.2418 9.26299 16.393 12.2979 17.6053C14.8201 18.6127 15.3334 18.4124 15.8808 18.3618C16.4283 18.3115 17.6474 17.6305 17.8961 16.9242C18.1451 16.2181 18.1451 15.6128 18.0704 15.4863C17.9958 15.3603 17.7967 15.2846 17.4981 15.1335C17.1994 14.9822 15.7315 14.2505 15.4578 14.1496C15.1841 14.0487 14.985 13.9984 14.7859 14.3012C14.5868 14.6036 14.015 15.2846 13.8407 15.4863C13.6666 15.6885 13.4923 15.7137 13.1938 15.5624C12.8951 15.4106 11.9335 15.0917 10.7926 14.0614C9.90499 13.2598 9.30574 12.2698 9.13155 11.967C8.95737 11.6646 9.1129 11.5007 9.26262 11.35C9.39677 11.2145 9.5613 10.9968 9.71074 10.8203C9.85962 10.6437 9.9093 10.5177 10.0089 10.316C10.1085 10.1141 10.0586 9.93746 9.98412 9.78618C9.9093 9.63491 9.32908 8.13918 9.06358 7.54121Z" fill="white"/>
</g>
<defs>
<linearGradient id="paint0_linear_17240_55361" x1="1200" y1="2400.5" x2="1200" y2="0.5" gradientUnits="userSpaceOnUse">
<stop stop-color="#F9F9F9"/>
<stop offset="1" stop-color="white"/>
</linearGradient>
<clipPath id="clip0_17240_55361">
<rect width="24" height="24" fill="white" transform="translate(0 0.5)"/>
</clipPath>
</defs>
</svg>
