<svg width="24" height="24" viewBox="0 0 24 24" fill="none" xmlns="http://www.w3.org/2000/svg">
<g clip-path="url(#clip0_16710_2355)">
<path d="M0.100027 11.8919C0.0994444 13.9876 0.649496 16.0339 1.69541 17.8375L0 24L6.33492 22.3464C8.08708 23.296 10.0502 23.7936 12.0452 23.7937H12.0505C18.6362 23.7937 23.9972 18.4587 24 11.9012C24.0013 8.7237 22.7594 5.73575 20.503 3.48778C18.2471 1.24 15.2468 0.00145018 12.05 0C5.46342 0 0.102746 5.33473 0.100027 11.8919Z" fill="#5FD669"/>
<path d="M0.100027 11.8919C0.0994444 13.9876 0.649496 16.0339 1.69541 17.8375L0 24L6.33492 22.3464C8.08036 23.2938 10.0455 23.7929 12.0452 23.7937H12.0505C18.6362 23.7937 23.9972 18.4587 24 11.9012C24.0013 8.7237 22.7594 5.73575 20.503 3.48778C18.2471 1.24 15.2468 0.00145018 12.05 0C5.46342 0 0.102746 5.33473 0.100027 11.8919ZM3.87281 17.527L3.63628 17.1532C2.64197 15.5792 2.11716 13.7604 2.11791 11.8927C2.12006 6.4426 6.57544 2.0085 12.054 2.0085C14.7071 2.00962 17.2005 3.03926 19.0759 4.90739C20.9512 6.7757 21.9831 9.25926 21.9824 11.9007C21.98 17.3509 17.5245 21.7855 12.0502 21.7855H12.0463C10.2638 21.7846 8.51569 21.308 6.99113 20.4075L6.62831 20.1933L2.86912 21.1745L3.87281 17.527Z" fill="url(#paint0_linear_16710_2355)"/>
<path d="M9.06358 7.04121C8.8399 6.53763 8.60449 6.52746 8.39177 6.51863C8.21758 6.51104 8.01846 6.51161 7.81952 6.51161C7.6204 6.51161 7.29687 6.58748 7.0234 6.88993C6.74965 7.19267 5.97827 7.92425 5.97827 9.4122C5.97827 10.9002 7.04824 12.3382 7.1974 12.5402C7.34674 12.7418 9.26299 15.893 12.2979 17.1053C14.8201 18.1127 15.3334 17.9124 15.8808 17.8618C16.4283 17.8115 17.6474 17.1305 17.8961 16.4242C18.1451 15.7181 18.1451 15.1128 18.0704 14.9863C17.9958 14.8603 17.7967 14.7846 17.4981 14.6335C17.1994 14.4822 15.7315 13.7505 15.4578 13.6496C15.1841 13.5487 14.985 13.4984 14.7859 13.8012C14.5868 14.1036 14.015 14.7846 13.8407 14.9863C13.6666 15.1885 13.4923 15.2137 13.1938 15.0624C12.8951 14.9106 11.9335 14.5917 10.7926 13.5614C9.90499 12.7598 9.30574 11.7698 9.13155 11.467C8.95737 11.1646 9.1129 11.0007 9.26262 10.85C9.39677 10.7145 9.5613 10.4968 9.71074 10.3203C9.85962 10.1437 9.9093 10.0177 10.0089 9.81597C10.1085 9.61409 10.0586 9.43746 9.98412 9.28618C9.9093 9.13491 9.32908 7.63918 9.06358 7.04121Z" fill="white"/>
</g>
<defs>
<linearGradient id="paint0_linear_16710_2355" x1="1200" y1="2400" x2="1200" y2="0" gradientUnits="userSpaceOnUse">
<stop stop-color="#F9F9F9"/>
<stop offset="1" stop-color="white"/>
</linearGradient>
<clipPath id="clip0_16710_2355">
<rect width="24" height="24" fill="white"/>
</clipPath>
</defs>
</svg>
